<mxfile host="app.diagrams.net" modified="2020-12-04T15:10:18.964Z" agent="5.0 (Windows NT 10.0; Win64; x64) AppleWebKit/537.36 (KHTML, like Gecko) Chrome/87.0.4280.67 Safari/537.36 Edg/87.0.664.52" etag="HZvV1H5RUfQ86lG9-FkH" version="13.10.9" type="github">
  <diagram id="FPqa_JGLMyVwI_HQ8s7g" name="Page-1">
    <mxGraphModel dx="868" dy="488" grid="1" gridSize="10" guides="1" tooltips="1" connect="1" arrows="1" fold="1" page="1" pageScale="1" pageWidth="850" pageHeight="1100" math="0" shadow="0">
      <root>
        <mxCell id="0" />
        <mxCell id="1" parent="0" />
        <mxCell id="eGLcF-mrgQOiwCiLM95G-3" style="edgeStyle=orthogonalEdgeStyle;rounded=0;orthogonalLoop=1;jettySize=auto;html=1;" edge="1" parent="1" source="eGLcF-mrgQOiwCiLM95G-1" target="eGLcF-mrgQOiwCiLM95G-2">
          <mxGeometry relative="1" as="geometry" />
        </mxCell>
        <mxCell id="eGLcF-mrgQOiwCiLM95G-1" value="Start" style="shape=parallelogram;perimeter=parallelogramPerimeter;whiteSpace=wrap;html=1;fixedSize=1;" vertex="1" parent="1">
          <mxGeometry x="350" y="110" width="120" height="60" as="geometry" />
        </mxCell>
        <mxCell id="eGLcF-mrgQOiwCiLM95G-5" style="edgeStyle=orthogonalEdgeStyle;rounded=0;orthogonalLoop=1;jettySize=auto;html=1;entryX=1;entryY=0.5;entryDx=0;entryDy=0;" edge="1" parent="1" source="eGLcF-mrgQOiwCiLM95G-2" target="eGLcF-mrgQOiwCiLM95G-4">
          <mxGeometry relative="1" as="geometry" />
        </mxCell>
        <mxCell id="eGLcF-mrgQOiwCiLM95G-2" value="Check whether a year is a leap year or not" style="rounded=1;whiteSpace=wrap;html=1;" vertex="1" parent="1">
          <mxGeometry x="330" y="230" width="160" height="80" as="geometry" />
        </mxCell>
        <mxCell id="eGLcF-mrgQOiwCiLM95G-6" style="edgeStyle=orthogonalEdgeStyle;rounded=0;orthogonalLoop=1;jettySize=auto;html=1;" edge="1" parent="1" source="eGLcF-mrgQOiwCiLM95G-4">
          <mxGeometry relative="1" as="geometry">
            <mxPoint x="200" y="600" as="targetPoint" />
          </mxGeometry>
        </mxCell>
        <mxCell id="eGLcF-mrgQOiwCiLM95G-7" value="Yes" style="edgeLabel;html=1;align=center;verticalAlign=middle;resizable=0;points=[];fontSize=19;" vertex="1" connectable="0" parent="eGLcF-mrgQOiwCiLM95G-6">
          <mxGeometry x="-0.1165" y="3" relative="1" as="geometry">
            <mxPoint x="7.68" y="-16.39" as="offset" />
          </mxGeometry>
        </mxCell>
        <mxCell id="eGLcF-mrgQOiwCiLM95G-9" style="edgeStyle=orthogonalEdgeStyle;rounded=0;orthogonalLoop=1;jettySize=auto;html=1;fontSize=19;" edge="1" parent="1" source="eGLcF-mrgQOiwCiLM95G-4">
          <mxGeometry relative="1" as="geometry">
            <mxPoint x="710" y="610" as="targetPoint" />
          </mxGeometry>
        </mxCell>
        <mxCell id="eGLcF-mrgQOiwCiLM95G-4" value="If Divisible by 4" style="triangle;whiteSpace=wrap;html=1;rotation=-90;" vertex="1" parent="1">
          <mxGeometry x="340" y="350" width="140" height="186.67" as="geometry" />
        </mxCell>
        <mxCell id="eGLcF-mrgQOiwCiLM95G-14" style="edgeStyle=orthogonalEdgeStyle;rounded=0;orthogonalLoop=1;jettySize=auto;html=1;entryX=0.5;entryY=0;entryDx=0;entryDy=0;fontSize=19;" edge="1" parent="1" source="eGLcF-mrgQOiwCiLM95G-8" target="eGLcF-mrgQOiwCiLM95G-13">
          <mxGeometry relative="1" as="geometry" />
        </mxCell>
        <mxCell id="eGLcF-mrgQOiwCiLM95G-15" value="No" style="edgeLabel;html=1;align=center;verticalAlign=middle;resizable=0;points=[];fontSize=19;" vertex="1" connectable="0" parent="eGLcF-mrgQOiwCiLM95G-14">
          <mxGeometry x="-0.325" y="3" relative="1" as="geometry">
            <mxPoint as="offset" />
          </mxGeometry>
        </mxCell>
        <mxCell id="eGLcF-mrgQOiwCiLM95G-16" style="edgeStyle=orthogonalEdgeStyle;rounded=0;orthogonalLoop=1;jettySize=auto;html=1;fontSize=19;" edge="1" parent="1" source="eGLcF-mrgQOiwCiLM95G-8">
          <mxGeometry relative="1" as="geometry">
            <mxPoint x="40" y="870" as="targetPoint" />
          </mxGeometry>
        </mxCell>
        <mxCell id="eGLcF-mrgQOiwCiLM95G-18" value="Yes" style="edgeLabel;html=1;align=center;verticalAlign=middle;resizable=0;points=[];fontSize=19;" vertex="1" connectable="0" parent="eGLcF-mrgQOiwCiLM95G-16">
          <mxGeometry x="-0.5161" y="4" relative="1" as="geometry">
            <mxPoint as="offset" />
          </mxGeometry>
        </mxCell>
        <mxCell id="eGLcF-mrgQOiwCiLM95G-8" value="&lt;font style=&quot;font-size: 12px&quot;&gt;if divisible by 100&lt;/font&gt;" style="rhombus;whiteSpace=wrap;html=1;fontSize=19;" vertex="1" parent="1">
          <mxGeometry x="140" y="600" width="120" height="120" as="geometry" />
        </mxCell>
        <mxCell id="eGLcF-mrgQOiwCiLM95G-10" value="Not a Leap Year" style="rounded=0;whiteSpace=wrap;html=1;fontSize=19;" vertex="1" parent="1">
          <mxGeometry x="650" y="610" width="120" height="60" as="geometry" />
        </mxCell>
        <mxCell id="eGLcF-mrgQOiwCiLM95G-11" value="No" style="edgeLabel;html=1;align=center;verticalAlign=middle;resizable=0;points=[];fontSize=19;" vertex="1" connectable="0" parent="1">
          <mxGeometry x="660.0038033645042" y="430.003090395047" as="geometry">
            <mxPoint x="-3" y="-4" as="offset" />
          </mxGeometry>
        </mxCell>
        <mxCell id="eGLcF-mrgQOiwCiLM95G-19" style="edgeStyle=orthogonalEdgeStyle;rounded=0;orthogonalLoop=1;jettySize=auto;html=1;fontSize=19;" edge="1" parent="1" source="eGLcF-mrgQOiwCiLM95G-13">
          <mxGeometry relative="1" as="geometry">
            <mxPoint x="660" y="1060" as="targetPoint" />
          </mxGeometry>
        </mxCell>
        <mxCell id="eGLcF-mrgQOiwCiLM95G-20" value="Yes" style="edgeLabel;html=1;align=center;verticalAlign=middle;resizable=0;points=[];fontSize=19;" vertex="1" connectable="0" parent="eGLcF-mrgQOiwCiLM95G-19">
          <mxGeometry x="-0.3183" relative="1" as="geometry">
            <mxPoint as="offset" />
          </mxGeometry>
        </mxCell>
        <mxCell id="eGLcF-mrgQOiwCiLM95G-23" style="edgeStyle=orthogonalEdgeStyle;rounded=0;orthogonalLoop=1;jettySize=auto;html=1;exitX=0;exitY=0.5;exitDx=0;exitDy=0;entryX=1;entryY=0.25;entryDx=0;entryDy=0;fontSize=19;" edge="1" parent="1" source="eGLcF-mrgQOiwCiLM95G-13" target="eGLcF-mrgQOiwCiLM95G-17">
          <mxGeometry relative="1" as="geometry" />
        </mxCell>
        <mxCell id="eGLcF-mrgQOiwCiLM95G-24" value="No" style="edgeLabel;html=1;align=center;verticalAlign=middle;resizable=0;points=[];fontSize=19;" vertex="1" connectable="0" parent="eGLcF-mrgQOiwCiLM95G-23">
          <mxGeometry x="0.1478" relative="1" as="geometry">
            <mxPoint as="offset" />
          </mxGeometry>
        </mxCell>
        <mxCell id="eGLcF-mrgQOiwCiLM95G-13" value="&lt;font style=&quot;font-size: 12px&quot;&gt;if divisible by 400&lt;/font&gt;" style="rhombus;whiteSpace=wrap;html=1;fontSize=19;" vertex="1" parent="1">
          <mxGeometry x="370" y="830" width="110" height="110" as="geometry" />
        </mxCell>
        <mxCell id="eGLcF-mrgQOiwCiLM95G-17" value="Not a Leap Year" style="rounded=0;whiteSpace=wrap;html=1;fontSize=19;" vertex="1" parent="1">
          <mxGeometry x="20" y="870" width="120" height="60" as="geometry" />
        </mxCell>
        <mxCell id="eGLcF-mrgQOiwCiLM95G-21" value="Its a Leap year" style="rounded=0;whiteSpace=wrap;html=1;fontSize=19;" vertex="1" parent="1">
          <mxGeometry x="610" y="1060" width="120" height="60" as="geometry" />
        </mxCell>
      </root>
    </mxGraphModel>
  </diagram>
</mxfile>
